<?xml version="1.0" encoding="UTF-8" standalone="no"?>
<svg width="58px" height="466px" viewBox="0 0 58 466" version="1.1" xmlns="http://www.w3.org/2000/svg" xmlns:xlink="http://www.w3.org/1999/xlink">
    <!-- Generator: Sketch 41.1 (35376) - http://www.bohemiancoding.com/sketch -->
    <title>Group 8</title>
    <desc>Created with Sketch.</desc>
    <defs></defs>
    <g id="Page-1" stroke="none" stroke-width="1" fill="none" fill-rule="evenodd">
        <g id="sepsis" transform="translate(-985.000000, -2060.000000)" stroke="#FFFFFF" stroke-width="3">
            <g id="Group-8" transform="translate(979.000000, 2062.000000)">
                <path d="M64,0 C64,0 61.3140591,3.50640457e-16 57.9964016,7.83749365e-16 L46.9818696,2.22165907e-15 C43.6661737,2.65451189e-15 40.9782711,2.69427547 40.9782711,6.00098335 L40.9782711,224.999018 C40.9782711,228.313269 38.2895723,231.000001 34.9757931,231.000001 L6.00247806,231.000001" id="Path-7"></path>
                <path d="M64,231 C64,231 61.3140591,231 57.9964016,231 L46.9818696,231 C43.6661737,231 40.9782711,233.694275 40.9782711,237.000983 L40.9782711,455.999018 C40.9782711,459.313269 38.2895723,462.000001 34.9757931,462.000001 L6.00247806,462.000001" id="Path-7-Copy" transform="translate(32.000000, 346.500001) scale(1, -1) translate(-32.000000, -346.500001) "></path>
            </g>
        </g>
    </g>
</svg>