<?xml version="1.0" encoding="UTF-8" standalone="no"?>
<svg width="424px" height="229px" viewBox="0 0 424 229" version="1.1" xmlns="http://www.w3.org/2000/svg" xmlns:xlink="http://www.w3.org/1999/xlink">
    <!-- Generator: Sketch 41.2 (35397) - http://www.bohemiancoding.com/sketch -->
    <title>bottom-left</title>
    <desc>Created with Sketch.</desc>
    <defs>
        <radialGradient cx="92.46189%" cy="92.2302246%" fx="92.46189%" fy="92.2302246%" r="99.5575574%" id="radialGradient-1">
            <stop stop-color="#FFFFFF" offset="0%"></stop>
            <stop stop-color="#201743" offset="100%"></stop>
        </radialGradient>
    </defs>
    <g id="Page-1" stroke="none" stroke-width="1" fill="none" fill-rule="evenodd">
        <g id="home-04-copy-2" transform="translate(-606.000000, -430.000000)" stroke="url(#radialGradient-1)">
            <g id="bottom-left" transform="translate(606.000000, 431.000000)">
                <path d="M11,217 L375,217 C375,217 421,216 421,163 C421,110 423,2.84217094e-14 423,2.84217094e-14" id="Path-6-Copy-2" transform="translate(217.000000, 108.500000) scale(1, -1) translate(-217.000000, -108.500000) "></path>
                <path d="M6,222 L370,222 C370,222 416,221 416,168 C416,115 418,5 418,5" id="Path-6-Copy-6" opacity="0.2" transform="translate(212.000000, 113.500000) scale(1, -1) translate(-212.000000, -113.500000) "></path>
                <path d="M0,228 L364,228 C364,228 410,227 410,174 C410,121 412,11 412,11" id="Path-6-Copy-7" opacity="0.05" transform="translate(206.000000, 119.500000) scale(1, -1) translate(-206.000000, -119.500000) "></path>
            </g>
        </g>
    </g>
</svg>