<?xml version="1.0" encoding="UTF-8" standalone="no"?>
<svg width="401px" height="397px" viewBox="0 0 401 397" version="1.1" xmlns="http://www.w3.org/2000/svg" xmlns:xlink="http://www.w3.org/1999/xlink">
    <!-- Generator: Sketch 41.2 (35397) - http://www.bohemiancoding.com/sketch -->
    <title>bottom-right</title>
    <desc>Created with Sketch.</desc>
    <defs>
        <radialGradient cx="92.46189%" cy="92.2302246%" fx="92.46189%" fy="92.2302246%" r="99.5575574%" id="radialGradient-1">
            <stop stop-color="#FFFFFF" offset="0%"></stop>
            <stop stop-color="#201743" offset="100%"></stop>
        </radialGradient>
    </defs>
    <g id="Page-1" stroke="none" stroke-width="1" fill="none" fill-rule="evenodd">
        <g id="home-04-copy-2" transform="translate(-1039.000000, -430.000000)" stroke="url(#radialGradient-1)">
            <g id="bottom-right" transform="translate(1040.000000, 431.000000)">
                <path d="M0,384 L364,384 C364,384 410,383 410,330 C410,277 407,5.68434189e-14 407,5.68434189e-14" id="Path-6-Copy-3" transform="translate(205.000000, 192.000000) scale(-1, -1) translate(-205.000000, -192.000000) "></path>
                <path d="M6,390 L370,390 C370,390 416,389 416,336 C416,283 413,6 413,6" id="Path-6-Copy-10" opacity="0.2" transform="translate(211.000000, 198.000000) scale(-1, -1) translate(-211.000000, -198.000000) "></path>
                <path d="M12,396 L376,396 C376,396 422,395 422,342 C422,289 419,12 419,12" id="Path-6-Copy-11" opacity="0.05" transform="translate(217.000000, 204.000000) scale(-1, -1) translate(-217.000000, -204.000000) "></path>
            </g>
        </g>
    </g>
</svg>