<?xml version="1.0" encoding="UTF-8" standalone="no"?>
<svg width="41px" height="39px" viewBox="0 0 41 39" version="1.1" xmlns="http://www.w3.org/2000/svg" xmlns:xlink="http://www.w3.org/1999/xlink">
    <!-- Generator: Sketch 41.2 (35397) - http://www.bohemiancoding.com/sketch -->
    <title>cell</title>
    <desc>Created with Sketch.</desc>
    <defs>
        <radialGradient cx="28.518039%" cy="58.2021303%" fx="28.518039%" fy="58.2021303%" r="67.2142853%" id="radialGradient-1">
            <stop stop-color="#ECEAF1" offset="0%"></stop>
            <stop stop-color="#756AD5" offset="100%"></stop>
        </radialGradient>
    </defs>
    <g id="Page-1" stroke="none" stroke-width="1" fill="none" fill-rule="evenodd">
        <g id="home-04" transform="translate(-773.000000, -407.000000)">
            <g id="Group-Copy-9" transform="translate(774.000000, 408.000000)">
                <g id="cell">
                    <path d="M19.8188595,36.6028068 C29.9352971,36.6028068 34.5328612,31.0193278 38.1362902,20.162563 C41.7397192,9.30579833 29.9352971,0 19.8188595,0 C9.70242183,0 0,7.26323756 0,17.3708235 C0,27.4784095 9.70242183,36.6028068 19.8188595,36.6028068 Z" id="Oval-2" stroke="#201743"></path>
                    <path d="M19.8188595,36.6028068 C29.9352971,36.6028068 34.5328612,31.0193278 38.1362902,20.162563 C41.7397192,9.30579833 29.9352971,0 19.8188595,0 C9.70242183,0 0,7.26323756 0,17.3708235 C0,27.4784095 9.70242183,36.6028068 19.8188595,36.6028068 Z" id="Oval-2" stroke="#433381" fill-opacity="0.049999997" fill="url(#radialGradient-1)"></path>
                    <ellipse id="Oval-2" stroke="#433381" cx="19.9690024" cy="18.3014034" rx="15.1644304" ry="18.3014034"></ellipse>
                    <path d="M12.4274116,16.5092975 C12.4274116,19.6112303 11.2262686,22.4029698 14.5294118,23.9539361 C17.8325551,25.5049025 21.4359841,25.8150958 22.3368413,25.8150958 C23.2376986,25.8150958 27.1414133,25.1947093 27.1414133,21.4723899 C27.1414133,17.7500706 31.6456996,16.1991042 25.6399846,14.0277513 C19.6342696,11.8563983 14.8242036,10.5320589 12.7276973,10.9258185 C10.631191,11.3195781 12.4274116,13.4073647 12.4274116,16.5092975 Z" id="Path-2" stroke="#6677CC"></path>
                </g>
            </g>
        </g>
    </g>
</svg>