<?xml version="1.0" encoding="UTF-8" standalone="no"?>
<svg width="80px" height="61px" viewBox="0 0 80 61" version="1.1" xmlns="http://www.w3.org/2000/svg" xmlns:xlink="http://www.w3.org/1999/xlink">
    <!-- Generator: Sketch 41.2 (35397) - http://www.bohemiancoding.com/sketch -->
    <title>footer-logo</title>
    <desc>Created with Sketch.</desc>
    <defs></defs>
    <g id="Symbols" stroke="none" stroke-width="1" fill="none" fill-rule="evenodd">
        <g id="footer" transform="translate(-680.000000, -354.000000)">
            <g id="footer-logo" transform="translate(680.000000, 354.000000)">
                <path d="M11.204,43.058 C10.178,42.428 8.972,42.14 7.784,42.14 C3.788,42.14 0.566,45.272 0.566,49.286 C0.566,53.21 3.77,56.288 7.64,56.288 C8.828,56.288 10.16,55.946 11.204,55.334 L11.204,53.336 C10.196,54.236 8.918,54.74 7.586,54.74 C4.562,54.74 2.258,52.202 2.258,49.232 C2.258,46.226 4.58,43.688 7.622,43.688 C8.9,43.688 10.232,44.156 11.204,45.02 L11.204,43.058 Z M17.542,54.56 L14.23,60.824 L16.066,60.824 L22.888,47.576 L21.07,47.576 L18.424,52.922 L15.58,47.576 L13.69,47.576 L17.542,54.56 Z M27.606,49.088 L29.19,49.088 L29.19,47.576 L27.606,47.576 L27.606,44.354 L25.986,44.354 L25.986,47.576 L25.104,47.576 L25.104,49.088 L25.986,49.088 L25.986,56 L27.606,56 L27.606,49.088 Z M35.816,47.324 C33.296,47.324 31.316,49.268 31.316,51.806 C31.316,54.344 33.296,56.288 35.816,56.288 C38.336,56.288 40.316,54.344 40.316,51.806 C40.316,49.268 38.336,47.324 35.816,47.324 Z M35.816,48.872 C37.418,48.872 38.696,50.204 38.696,51.806 C38.696,53.39 37.418,54.74 35.816,54.74 C34.214,54.74 32.936,53.39 32.936,51.806 C32.936,50.204 34.214,48.872 35.816,48.872 Z M44.26,47.576 L42.442,47.576 L46.672,56.288 L50.92,47.576 L49.102,47.576 L46.672,52.832 L44.26,47.576 Z M57.438,54.848 C55.728,54.848 54.774,53.372 54.774,51.788 C54.774,50.222 55.764,48.764 57.438,48.764 C59.184,48.764 60.174,50.15 60.174,51.788 C60.174,53.444 59.202,54.848 57.438,54.848 Z M61.704,47.576 L60.084,47.576 L60.084,48.98 L60.048,48.98 C59.382,47.972 58.374,47.324 57.132,47.324 C54.684,47.324 53.154,49.43 53.154,51.734 C53.154,54.146 54.612,56.288 57.186,56.288 C58.392,56.288 59.4,55.64 60.048,54.686 L60.084,54.686 L60.084,56 L61.704,56 L61.704,47.576 Z M67.502,40.376 L65.882,40.376 L65.882,56 L67.502,56 L67.502,40.376 Z M79.204,52.058 L79.204,51.806 C79.204,49.304 77.944,47.324 75.262,47.324 C72.544,47.324 71.158,49.268 71.158,51.86 C71.158,54.344 72.724,56.288 75.298,56.288 C76.936,56.288 78.412,55.442 79.204,53.984 L77.836,53.21 C77.224,54.218 76.558,54.848 75.316,54.848 C73.768,54.848 72.796,53.498 72.778,52.058 L79.204,52.058 Z M72.868,50.834 C73.066,49.628 74.002,48.728 75.262,48.728 C76.558,48.728 77.386,49.574 77.584,50.834 L72.868,50.834 Z" id="Cytovale" fill="#CBD3F7"></path>
                <g id="logo" transform="translate(25.000000, 0.000000)" fill="#6677CC">
                    <path d="M0.997198679,0 C0.446461056,0 0.175771449,0.420573139 0.385723284,0.922930622 L3.96078127,9.47706938 C4.17381036,9.98678989 4.52227601,9.97942686 4.73222784,9.47706938 L8.30728583,0.922930622 C8.52031492,0.413210114 8.24997033,0 7.69581044,0 L0.997198679,0 Z" id="Path-2-Copy-2"></path>
                    <path d="M0.997198679,16.1433964 C0.446461056,16.1433964 0.175771449,16.5639695 0.385723284,17.066327 L3.96078127,25.6204657 C4.17381036,26.1301862 4.52227601,26.1228232 4.73222784,25.6204657 L8.30728583,17.066327 C8.52031492,16.5566065 8.24997033,16.1433964 7.69581044,16.1433964 L0.997198679,16.1433964 Z" id="Path-2-Copy-6" transform="translate(4.347344, 21.071698) scale(1, -1) translate(-4.347344, -21.071698) "></path>
                    <path d="M24.4683233,0 C23.9175857,0 23.6468961,0.420573139 23.8568479,0.922930622 L27.4319059,9.47706938 C27.644935,9.98678989 27.9934006,9.97942686 28.2033525,9.47706938 L31.7784105,0.922930622 C31.9914395,0.413210114 31.721095,0 31.1669351,0 L24.4683233,0 Z" id="Path-2-Copy-4"></path>
                    <path d="M24.4683233,16.1433964 C23.9175857,16.1433964 23.6468961,16.5639695 23.8568479,17.066327 L27.4319059,25.6204657 C27.644935,26.1301862 27.9934006,26.1228232 28.2033525,25.6204657 L31.7784105,17.066327 C31.9914395,16.5566065 31.721095,16.1433964 31.1669351,16.1433964 L24.4683233,16.1433964 Z" id="Path-2-Copy-7" transform="translate(27.818469, 21.071698) scale(1, -1) translate(-27.818469, -21.071698) "></path>
                    <path d="M12.732761,0.543396354 C12.1820234,0.543396354 11.9113338,0.963969493 12.1212856,1.46632698 L15.6963436,10.0204657 C15.9093727,10.5301862 16.2578383,10.5228232 16.4677902,10.0204657 L20.0428481,1.46632698 C20.2558772,0.956606468 19.9855326,0.543396354 19.4313727,0.543396354 L12.732761,0.543396354 Z" id="Path-2-Copy-3" transform="translate(16.082906, 5.471698) scale(1, -1) translate(-16.082906, -5.471698) "></path>
                    <path d="M12.732761,15.6 C12.1820234,15.6 11.9113338,16.0205731 12.1212856,16.5229306 L15.6963436,25.0770694 C15.9093727,25.5867899 16.2578383,25.5794269 16.4677902,25.0770694 L20.0428481,16.5229306 C20.2558772,16.0132101 19.9855326,15.6 19.4313727,15.6 L12.732761,15.6 Z" id="Path-2-Copy-8"></path>
                </g>
            </g>
        </g>
    </g>
</svg>