<?xml version="1.0" encoding="UTF-8"?>
<svg width="536px" height="549px" viewBox="0 0 536 549" version="1.1" xmlns="http://www.w3.org/2000/svg" xmlns:xlink="http://www.w3.org/1999/xlink">
    <!-- Generator: Sketch 45.1 (43504) - http://www.bohemiancoding.com/sketch -->
    <title>speedometer</title>
    <desc>Created with Sketch.</desc>
    <defs></defs>
    <g id="Page-1" stroke="none" stroke-width="1" fill="none" fill-rule="evenodd">
        <g id="home-04" transform="translate(-185.000000, -2035.000000)">
            <g id="speedometer" transform="translate(185.000000, 2035.000000)">
                <circle id="Oval-8" fill="#FFFFFF" cx="267.5" cy="267.5" r="267.5"></circle>
                <path d="M428.697576,76.4818974 C414.726628,64.7469576 399.453083,54.5125664 383.125102,46.0268843 M155.068235,44.9007487 C73.7382078,86.1512176 18,170.566431 18,268 C18,299.964867 23.9990375,330.528583 34.9326554,358.626693" id="Oval-8" stroke="#3ECDC3" stroke-width="2"></path>
                <circle id="Oval-7" fill="#8290D6" cx="268" cy="268" r="233"></circle>
                <text id="1200" font-family="Inconsolata-Regular, Inconsolata" font-size="11" font-weight="normal" letter-spacing="0.611111164" fill="#FFFFFF">
                    <tspan x="255.277778" y="69">1200</tspan>
                </text>
                <text id="800" transform="translate(156.899495, 99.899495) rotate(-30.000000) translate(-156.899495, -99.899495) " font-family="Inconsolata-Regular, Inconsolata" font-size="11" font-weight="normal" letter-spacing="0.611111164" fill="#FFFFFF">
                    <tspan x="147.732828" y="103.399495">800</tspan>
                </text>
                <text id="400" transform="translate(91.500000, 171.500000) rotate(-60.000000) translate(-91.500000, -171.500000) " font-family="Inconsolata-Regular, Inconsolata" font-size="11" font-weight="normal" letter-spacing="0.611111164" fill="#FFFFFF">
                    <tspan x="82.3333333" y="175">400</tspan>
                </text>
                <text id="0" transform="translate(66.500000, 270.500000) rotate(-90.000000) translate(-66.500000, -270.500000) " font-family="Inconsolata-Regular, Inconsolata" font-size="11" font-weight="normal" letter-spacing="0.611111164" fill="#FFFFFF">
                    <tspan x="63.4444444" y="274">0</tspan>
                </text>
                <text id="2400" transform="translate(468.500000, 267.500000) rotate(-270.000000) translate(-468.500000, -267.500000) " font-family="Inconsolata-Regular, Inconsolata" font-size="11" font-weight="normal" letter-spacing="0.611111164" fill="#FFFFFF">
                    <tspan x="456.277778" y="271">2400</tspan>
                </text>
                <text id="+" transform="translate(409.500000, 269.000000) rotate(-270.000000) translate(-409.500000, -269.000000) " font-family="Inconsolata-Regular, Inconsolata" font-size="10" font-weight="normal" letter-spacing="0.555555582" fill="#FFFFFF">
                    <tspan x="406.722222" y="272.5">+</tspan>
                </text>
                <text id="2000" transform="translate(444.500000, 170.500000) rotate(-300.000000) translate(-444.500000, -170.500000) " font-family="Inconsolata-Regular, Inconsolata" font-size="11" font-weight="normal" letter-spacing="0.611111164" fill="#FFFFFF">
                    <tspan x="432.277778" y="174">2000</tspan>
                </text>
                <text id="1600" transform="translate(373.709292, 97.513140) rotate(-330.000000) translate(-373.709292, -97.513140) " font-family="Inconsolata-Regular, Inconsolata" font-size="11" font-weight="normal" letter-spacing="0.611111164" fill="#FFFFFF">
                    <tspan x="361.48707" y="101.01314">1600</tspan>
                </text>
                <circle id="Oval-7" stroke="#FFFFFF" cx="268" cy="267" r="192"></circle>
                <circle id="Oval-7" stroke-opacity="0.366394928" stroke="#FFFFFF" stroke-width="3" stroke-dasharray="1,10" cx="268" cy="267" r="189"></circle>
                <circle id="Oval-7" stroke="#6777CB" stroke-width="13" stroke-dasharray="1,6" cx="268" cy="266" r="216"></circle>
                <circle id="Oval-4" fill="#FFFFFF" cx="268.5" cy="262.5" r="95.5"></circle>
                <polygon id="Rectangle-8" fill="#201743" points="2 344.361564 269 268 536 344.361564 531 549 2 549"></polygon>
                <path d="M178.712,404.22 L200.384,383.724 C206.768,377.76 214.328,370.872 215.672,362.388 C217.352,351.804 210.128,343.824 199.628,343.824 C194.168,343.824 187.868,346.428 183.5,350.544 C179.888,354.156 178.544,358.02 177.704,362.556 L181.736,362.556 C182.828,353.904 190.388,347.604 199.04,347.604 C207.188,347.604 212.984,353.904 211.64,362.136 C210.548,369.528 202.484,376.752 196.856,382.044 L169.136,408 L208.196,408 L208.784,404.22 L178.712,404.22 Z M251.624,343.824 C267.332,343.824 271.7,362.64 269.6,375.912 C267.5,389.016 257.42,408.84 241.292,408.84 C225.164,408.84 221.468,389.016 223.568,375.912 C225.668,362.64 235.916,343.824 251.624,343.824 Z M241.964,405.06 C255.488,405.06 263.72,387.336 265.568,375.912 C267.08,365.916 264.56,347.604 251.036,347.604 C237.512,347.604 229.112,365.916 227.6,375.912 C225.752,387.336 228.44,405.06 241.964,405.06 Z M303.704,343.824 C319.412,343.824 323.78,362.64 321.68,375.912 C319.58,389.016 309.5,408.84 293.372,408.84 C277.244,408.84 273.548,389.016 275.648,375.912 C277.748,362.64 287.996,343.824 303.704,343.824 Z M294.044,405.06 C307.568,405.06 315.8,387.336 317.648,375.912 C319.16,365.916 316.64,347.604 303.116,347.604 C289.592,347.604 281.192,365.916 279.68,375.912 C277.832,387.336 280.52,405.06 294.044,405.06 Z M355.784,343.824 C371.492,343.824 375.86,362.64 373.76,375.912 C371.66,389.016 361.58,408.84 345.452,408.84 C329.324,408.84 325.628,389.016 327.728,375.912 C329.828,362.64 340.076,343.824 355.784,343.824 Z M346.124,405.06 C359.648,405.06 367.88,387.336 369.728,375.912 C371.24,365.916 368.72,347.604 355.196,347.604 C341.672,347.604 333.272,365.916 331.76,375.912 C329.912,387.336 332.6,405.06 346.124,405.06 Z" id="2000" fill="#FFFFFF"></path>
                <path d="M180.507555,431.496 C179.595555,430.936 178.523555,430.68 177.467555,430.68 C173.915555,430.68 171.051555,433.464 171.051555,437.032 C171.051555,440.52 173.899555,443.256 177.339555,443.256 C178.395555,443.256 179.579555,442.952 180.507555,442.408 L180.507555,440.632 C179.611555,441.432 178.475555,441.88 177.291555,441.88 C174.603555,441.88 172.555555,439.624 172.555555,436.984 C172.555555,434.312 174.619555,432.056 177.323555,432.056 C178.459555,432.056 179.643555,432.472 180.507555,433.24 L180.507555,431.496 Z M185.855111,443 L192.335111,443 L192.335111,441.624 L187.359111,441.624 L187.359111,437.064 L192.191111,437.064 L192.191111,435.688 L187.359111,435.688 L187.359111,432.312 L192.335111,432.312 L192.335111,430.936 L185.855111,430.936 L185.855111,443 Z M199.250667,430.936 L197.746667,430.936 L197.746667,443 L202.914667,443 L202.914667,441.624 L199.250667,441.624 L199.250667,430.936 Z M208.966222,430.936 L207.462222,430.936 L207.462222,443 L212.630222,443 L212.630222,441.624 L208.966222,441.624 L208.966222,430.936 Z M223.737778,432.504 C223.081778,431.336 221.977778,430.68 220.633778,430.68 C218.809778,430.68 217.081778,431.848 217.081778,433.8 C217.081778,435.48 218.329778,436.264 219.705778,436.856 L220.537778,437.208 C221.577778,437.64 222.617778,438.2 222.617778,439.496 C222.617778,440.76 221.689778,441.848 220.393778,441.848 C219.097778,441.848 218.041778,440.888 218.057778,439.56 L216.537778,439.88 C216.793778,441.816 218.313778,443.256 220.265778,443.256 C222.425778,443.256 224.121778,441.688 224.121778,439.496 C224.121778,437.48 222.841778,436.536 221.129778,435.864 L220.265778,435.528 C219.513778,435.24 218.585778,434.744 218.585778,433.8 C218.585778,432.744 219.641778,432.088 220.601778,432.088 C221.513778,432.088 222.089778,432.472 222.537778,433.224 L223.737778,432.504 Z M239.008889,437.944 L239.008889,443 L237.504889,443 L237.504889,430.936 L239.232889,430.936 C242.944889,430.936 244.096889,432.216 244.096889,434.424 C244.096889,436.968 242.160889,437.944 239.872889,437.944 L239.008889,437.944 Z M239.008889,432.28 L239.008889,436.6 L239.488889,436.6 C241.024889,436.6 242.688889,436.312 242.688889,434.392 C242.688889,432.504 240.896889,432.28 239.408889,432.28 L239.008889,432.28 Z M248.980444,443 L255.460444,443 L255.460444,441.624 L250.484444,441.624 L250.484444,437.064 L255.316444,437.064 L255.316444,435.688 L250.484444,435.688 L250.484444,432.312 L255.460444,432.312 L255.460444,430.936 L248.980444,430.936 L248.980444,443 Z M264.568,437.752 L268.376,443 L266.552,443 L263,437.896 L262.376,437.896 L262.376,443 L260.872,443 L260.872,430.936 L262.696,430.936 C263.768,430.936 264.92,430.952 265.88,431.496 C266.888,432.088 267.464,433.224 267.464,434.376 C267.464,436.104 266.312,437.544 264.568,437.752 Z M262.376,432.28 L262.376,436.648 L262.856,436.648 C264.392,436.648 266.056,436.36 266.056,434.44 C266.056,432.552 264.264,432.28 262.776,432.28 L262.376,432.28 Z M287.855111,432.504 C287.199111,431.336 286.095111,430.68 284.751111,430.68 C282.927111,430.68 281.199111,431.848 281.199111,433.8 C281.199111,435.48 282.447111,436.264 283.823111,436.856 L284.655111,437.208 C285.695111,437.64 286.735111,438.2 286.735111,439.496 C286.735111,440.76 285.807111,441.848 284.511111,441.848 C283.215111,441.848 282.159111,440.888 282.175111,439.56 L280.655111,439.88 C280.911111,441.816 282.431111,443.256 284.383111,443.256 C286.543111,443.256 288.239111,441.688 288.239111,439.496 C288.239111,437.48 286.959111,436.536 285.247111,435.864 L284.383111,435.528 C283.631111,435.24 282.703111,434.744 282.703111,433.8 C282.703111,432.744 283.759111,432.088 284.719111,432.088 C285.631111,432.088 286.207111,432.472 286.655111,433.224 L287.855111,432.504 Z M293.442667,443 L299.922667,443 L299.922667,441.624 L294.946667,441.624 L294.946667,437.064 L299.778667,437.064 L299.778667,435.688 L294.946667,435.688 L294.946667,432.312 L299.922667,432.312 L299.922667,430.936 L293.442667,430.936 L293.442667,443 Z M314.118222,431.496 C313.206222,430.936 312.134222,430.68 311.078222,430.68 C307.526222,430.68 304.662222,433.464 304.662222,437.032 C304.662222,440.52 307.510222,443.256 310.950222,443.256 C312.006222,443.256 313.190222,442.952 314.118222,442.408 L314.118222,440.632 C313.222222,441.432 312.086222,441.88 310.902222,441.88 C308.214222,441.88 306.166222,439.624 306.166222,436.984 C306.166222,434.312 308.230222,432.056 310.934222,432.056 C312.070222,432.056 313.254222,432.472 314.118222,433.24 L314.118222,431.496 Z M324.937778,430.68 C328.393778,430.68 331.257778,433.512 331.257778,436.968 C331.257778,440.552 328.425778,443.256 324.937778,443.256 C321.449778,443.256 318.617778,440.552 318.617778,436.968 C318.617778,433.512 321.481778,430.68 324.937778,430.68 Z M324.937778,441.848 C327.545778,441.848 329.753778,439.72 329.753778,436.968 C329.753778,434.312 327.769778,432.088 324.937778,432.088 C322.105778,432.088 320.121778,434.312 320.121778,436.968 C320.121778,439.72 322.329778,441.848 324.937778,441.848 Z M336.125333,443 L337.629333,443 L337.629333,434.008 L346.685333,443.496 L346.685333,430.936 L345.181333,430.936 L345.181333,439.848 L336.125333,430.36 L336.125333,443 Z M352.256889,443 L352.256889,430.936 L354.752889,430.936 C358.448889,430.936 361.520889,432.888 361.520889,436.904 C361.520889,441.016 358.512889,443 354.704889,443 L352.256889,443 Z M353.760889,432.312 L353.760889,441.624 L354.288889,441.624 C357.360889,441.624 360.016889,440.472 360.016889,436.968 C360.016889,433.448 357.360889,432.312 354.288889,432.312 L353.760889,432.312 Z" id="CELLS-PER-SECOND" fill="#FFFFFF"></path>
                <circle id="Oval-5" fill="#D8D8D8" cx="268" cy="268" r="12"></circle>
                <circle id="Oval-10" fill="#201743" cx="268" cy="268" r="7"></circle>
                <g id="Group-5" transform="translate(347.153083, 224.624729) rotate(-299.000000) translate(-347.153083, -224.624729) translate(345.153083, 137.624729)">
                    <rect id="Rectangle-10" fill="#201743" x="0.4" y="5.68434189e-14" width="3.2" height="174"></rect>
                    <rect id="Rectangle-12" fill="#FFFFFF" x="0.4" y="5.68434189e-14" width="3.2" height="30"></rect>
                </g>
                <circle id="Oval-11" stroke-opacity="0.2" stroke="#FFFFFF" cx="409" cy="269" r="7"></circle>
                <circle id="Oval-11-Copy" stroke-opacity="0.2" stroke="#FFFFFF" cx="124" cy="269" r="7"></circle>
                <path d="M122,269 L126,269" id="Path-9" stroke="#FFFFFF"></path>
                <path d="M158,358 L110.989363,358" id="Path-7" stroke="#FFFFFF"></path>
                <path d="M165.040533,380 L54,380" id="Path-8" stroke="#FFFFFF"></path>
                <path d="M148.040533,399 L73.5,399" id="Path-8-Copy" stroke="#FFFFFF"></path>
                <g id="increasing" transform="translate(119.000000, 25.000000)">
                    <path d="M0.648340862,50.0645562 C41.5239593,18.6557779 92.5967004,0 148,0 C207.768238,0 262.496673,21.7111589 304.820041,57.7227487 L280,57.7227487" id="Oval-8-Copy"></path>
                    <text id="Increasing-Clinical" font-family="FuturaStd-Medium, Futura Std" font-size="15" font-weight="400" letter-spacing="1" fill="#403E50">
                        <tspan x="49.91" y="24.0401235">Increasing Clinical Relevanc</tspan>
                        <tspan x="253.77" y="24.0401235">e</tspan>
                    </text>
                </g>
                <polyline id="Path-11" stroke="#3ECDC3" stroke-width="2" points="419 76 429 77 428 67"></polyline>
            </g>
        </g>
    </g>
</svg>