<?xml version="1.0" encoding="UTF-8" standalone="no"?>
<svg width="669px" height="466px" viewBox="0 0 669 466" version="1.1" xmlns="http://www.w3.org/2000/svg" xmlns:xlink="http://www.w3.org/1999/xlink">
    <!-- Generator: Sketch 41.1 (35376) - http://www.bohemiancoding.com/sketch -->
    <title>Group 13</title>
    <desc>Created with Sketch.</desc>
    <defs></defs>
    <g id="Page-1" stroke="none" stroke-width="1" fill="none" fill-rule="evenodd">
        <g id="sepsis" transform="translate(-386.000000, -2060.000000)">
            <g id="Group-13" transform="translate(386.000000, 2062.000000)">
                <g id="Group-8" transform="translate(593.000000, 0.000000)" stroke="#FFFFFF" stroke-width="3">
                    <path d="M64,0 C64,0 61.3140591,3.50640457e-16 57.9964016,7.83749365e-16 L46.9818696,2.22165907e-15 C43.6661737,2.65451189e-15 40.9782711,2.69427547 40.9782711,6.00098335 L40.9782711,224.999018 C40.9782711,228.313269 38.2895723,231.000001 34.9757931,231.000001 L6.00247806,231.000001" id="Path-7"></path>
                    <path d="M64,231 C64,231 61.3140591,231 57.9964016,231 L46.9818696,231 C43.6661737,231 40.9782711,233.694275 40.9782711,237.000983 L40.9782711,455.999018 C40.9782711,459.313269 38.2895723,462.000001 34.9757931,462.000001 L6.00247806,462.000001" id="Path-7-Copy" transform="translate(32.000000, 346.500001) scale(1, -1) translate(-32.000000, -346.500001) "></path>
                </g>
                <g id="Group-5-Copy" transform="translate(0.000000, 216.000000)">
                    <ellipse id="Oval" fill="#3ECDC3" cx="12.5" cy="12.5" rx="12.5" ry="12.5"></ellipse>
                    <ellipse id="Oval-Copy" fill="#3ECDC3" cx="656.5" cy="12.5" rx="12.5" ry="12.5"></ellipse>
                    <g id="star" transform="translate(3.017241, 3.017241)" fill="#201743">
                        <path d="M9.69827586,0 C10.3571525,7.23927802 10.953354,5.01437231 12.6951643,0.474730603 C11.4360857,5.17124192 10.6106412,7.32159213 15.3988012,1.85224946 C11.6767241,8.09612069 13.4667834,6.64659213 17.5443023,3.99775054 C13.7651266,7.05719289 11.8333513,8.31166487 18.9218211,6.70138739 C12.2405577,9.5650458 14.5407462,9.44454472 19.3965517,9.69827586 C14.5407462,9.952007 12.2405577,9.83150593 18.9218211,12.6951643 C11.8333513,11.0847656 13.7650054,12.3392376 17.5443023,15.3988012 C13.4667834,12.7499596 11.6767241,11.300431 15.3988012,17.5444235 C10.6106412,12.0749596 11.4360857,14.225431 12.6951643,18.9219423 C10.9532328,14.3821794 10.3571525,12.1573949 9.69827586,19.3965517 C9.03939925,12.1573949 8.44319774,14.3821794 6.70138739,18.9219423 C7.96046606,14.2253098 8.78591056,12.0749596 3.99775054,17.5444235 C7.71982759,11.300431 5.92976832,12.7499596 1.85224946,15.3988012 C5.63142511,12.3393588 7.56320043,11.0848869 0.474730603,12.6951643 C7.15599407,9.83150593 4.8558055,9.952007 0,9.69827586 C4.8558055,9.44454472 7.15599407,9.5650458 0.474730603,6.70138739 C7.56320043,8.3117861 5.63154634,7.05731412 1.85224946,3.99775054 C5.92976832,6.64659213 7.71982759,8.09612069 3.99775054,1.85224946 C8.78591056,7.32159213 7.96046606,5.17124192 6.70138739,0.474730603 C8.44319774,5.01437231 9.03939925,7.23927802 9.69827586,0"></path>
                        <path d="M653.698276,0 C654.357152,7.23927802 654.953354,5.01437231 656.695164,0.474730603 C655.436086,5.17124192 654.610641,7.32159213 659.398801,1.85224946 C655.676724,8.09612069 657.466783,6.64659213 661.544302,3.99775054 C657.765127,7.05719289 655.833351,8.31166487 662.921821,6.70138739 C656.240558,9.5650458 658.540746,9.44454472 663.396552,9.69827586 C658.540746,9.952007 656.240558,9.83150593 662.921821,12.6951643 C655.833351,11.0847656 657.765005,12.3392376 661.544302,15.3988012 C657.466783,12.7499596 655.676724,11.300431 659.398801,17.5444235 C654.610641,12.0749596 655.436086,14.225431 656.695164,18.9219423 C654.953233,14.3821794 654.357152,12.1573949 653.698276,19.3965517 C653.039399,12.1573949 652.443198,14.3821794 650.701387,18.9219423 C651.960466,14.2253098 652.785911,12.0749596 647.997751,17.5444235 C651.719828,11.300431 649.929768,12.7499596 645.852249,15.3988012 C649.631425,12.3393588 651.5632,11.0848869 644.474731,12.6951643 C651.155994,9.83150593 648.855805,9.952007 644,9.69827586 C648.855805,9.44454472 651.155994,9.5650458 644.474731,6.70138739 C651.5632,8.3117861 649.631546,7.05731412 645.852249,3.99775054 C649.929768,6.64659213 651.719828,8.09612069 647.997751,1.85224946 C652.785911,7.32159213 651.960466,5.17124192 650.701387,0.474730603 C652.443198,5.01437231 653.039399,7.23927802 653.698276,0" id="star-copy"></path>
                    </g>
                </g>
                <path d="M29,228 L48.0262976,228" id="Path-5" stroke="#FFFFFF" stroke-width="3"></path>
            </g>
        </g>
    </g>
</svg>