<?xml version="1.0" encoding="UTF-8" standalone="no"?>
<svg width="401px" height="263px" viewBox="0 0 401 263" version="1.1" xmlns="http://www.w3.org/2000/svg" xmlns:xlink="http://www.w3.org/1999/xlink">
    <!-- Generator: Sketch 41.2 (35397) - http://www.bohemiancoding.com/sketch -->
    <title>top-right</title>
    <desc>Created with Sketch.</desc>
    <defs>
        <radialGradient cx="92.46189%" cy="92.2302246%" fx="92.46189%" fy="92.2302246%" r="99.5575574%" id="radialGradient-1">
            <stop stop-color="#FFFFFF" offset="0%"></stop>
            <stop stop-color="#201743" offset="100%"></stop>
        </radialGradient>
    </defs>
    <g id="Page-1" stroke="none" stroke-width="1" fill="none" fill-rule="evenodd">
        <g id="home-04-copy-2" transform="translate(-1039.000000, -153.000000)" stroke="url(#radialGradient-1)">
            <g id="top-right" transform="translate(1040.000000, 153.000000)">
                <path d="M0,262.001506 L364,262.001506 C364,262.001506 410,261.001506 410,208.001506 C410,155.001506 407,11 407,11" id="Path-6-Copy" transform="translate(205.000000, 136.500753) scale(-1, 1) translate(-205.000000, -136.500753) "></path>
                <path d="M5,257.001506 L369,257.001506 C369,257.001506 415,256.001506 415,203.001506 C415,150.001506 412,6 412,6" id="Path-6-Copy-8" opacity="0.2" transform="translate(210.000000, 131.500753) scale(-1, 1) translate(-210.000000, -131.500753) "></path>
                <path d="M11,251.001506 L375,251.001506 C375,251.001506 421,250.001506 421,197.001506 C421,144.001506 418,0 418,0" id="Path-6-Copy-9" opacity="0.05" transform="translate(216.000000, 125.500753) scale(-1, 1) translate(-216.000000, -125.500753) "></path>
            </g>
        </g>
    </g>
</svg>