<?xml version="1.0" encoding="utf-8"?>
<!-- Generator: Adobe Illustrator 16.0.4, SVG Export Plug-In . SVG Version: 6.00 Build 0)  -->
<!DOCTYPE svg PUBLIC "-//W3C//DTD SVG 1.1//EN" "http://www.w3.org/Graphics/SVG/1.1/DTD/svg11.dtd">
<svg version="1.1" id="Layer_1" xmlns="http://www.w3.org/2000/svg" xmlns:xlink="http://www.w3.org/1999/xlink" x="0px" y="0px"
	 width="254.5px" height="141.75px" viewBox="-4.5 -16.75 254.5 141.75" enable-background="new -4.5 -16.75 254.5 141.75"
	 xml:space="preserve">
<title>Group 9</title>
<desc>Created with Sketch.</desc>
<g id="Page-1">
	<g id="sepsis" transform="translate(-200.000000, -919.000000)">
		<g id="Group-9" transform="translate(200.000000, 919.000000)">
			<text transform="matrix(1 0 0 1 32.4199 106.5)" fill="#8290D6" font-family="'FuturaStd-Light'" font-size="12">Sepsis</text>
			<text transform="matrix(1 0 0 1 122.7261 107.5)" fill="#8290D6" font-family="'FuturaStd-Light'" font-size="12">AIDS, Breast Cancer and </text>
			<text transform="matrix(1 0 0 1 146.9902 122.5)" fill="#8290D6" font-family="'FuturaStd-Light'" font-size="12">Prostate Cancer</text>
			<circle id="Oval-3" fill="#3ECDC3" cx="47.75" cy="37.25" r="49.75"/>
			<circle id="Oval-3-Copy" fill="#6677CC" cx="190" cy="40.5" r="35"/>
			<path id="Combined-Shape" fill="#FFFFFF" fill-opacity="0.4" d="M222.648,53.074c1.503-3.902,2.327-8.142,2.327-12.574
				c0-19.33-15.671-35-35-35c-3.908,0-7.666,0.641-11.176,1.822L190.976,39.5L222.648,53.074z"/>
			<path id="Combined-Shape_1_" fill-opacity="0.4" d="M193.621,75.314c13.313-1.367,24.415-10.199,29.053-22.24L191,39.5
				L193.621,75.314z"/>
		</g>
	</g>
</g>
</svg>
