<?xml version="1.0" encoding="utf-8"?>
<!-- Generator: Adobe Illustrator 19.2.1, SVG Export Plug-In . SVG Version: 6.00 Build 0)  -->
<svg version="1.1" id="Layer_1" xmlns="http://www.w3.org/2000/svg" xmlns:xlink="http://www.w3.org/1999/xlink" x="0px" y="0px"
	 viewBox="0 0 204.1 233.8" style="enable-background:new 0 0 204.1 233.8;" xml:space="preserve">
<style type="text/css">
	.st0{fill:#FFFFFF;}
	.st1{filter:url(#Adobe_OpacityMaskFilter);}
	.st2{mask:url(#mask-4);}
	.st3{filter:url(#filter-3);}
	.st4{fill:#3ECDC3;stroke:#3ECDC3;stroke-width:14;}
	.st5{filter:url(#Adobe_OpacityMaskFilter_1_);}
	.st6{mask:url(#mask-2);}
	.st7{fill:#FFFFFF;stroke:#3ECDC3;stroke-width:2;}
	.st8{fill:#201743;}
	.st9{filter:url(#Adobe_OpacityMaskFilter_2_);}
	.st10{mask:url(#mask-8);}
	.st11{filter:url(#filter-7);}
	.st12{fill:none;stroke:#3ECDC3;stroke-width:4;}
	.st13{fill:#403E50;}
	.st14{font-family:'FuturaStd-Medium';}
	.st15{font-size:16px;}
</style>
<filter  filterUnits="objectBoundingBox" height="200%" id="filter-7" width="200%" x="-50%" y="-50%">
	<feOffset  dx="0" dy="10" in="SourceAlpha" result="shadowOffsetOuter1"></feOffset>
	<feMorphology  in="SourceAlpha" operator="erode" radius="2" result="shadowInner"></feMorphology>
	<feOffset  dx="0" dy="10" in="shadowInner" result="shadowInner"></feOffset>
	<feComposite  in="shadowOffsetOuter1" in2="shadowInner" operator="out" result="shadowOffsetOuter1"></feComposite>
	<feGaussianBlur  in="shadowOffsetOuter1" result="shadowBlurOuter1" stdDeviation="20"></feGaussianBlur>
	<feColorMatrix  in="shadowBlurOuter1" type="matrix" values="0 0 0 0 0   0 0 0 0 0   0 0 0 0 0  0 0 0 0.05 0"></feColorMatrix>
</filter>
<filter  filterUnits="objectBoundingBox" height="200%" id="filter-3" width="200%" x="-50%" y="-50%">
	<feOffset  dx="0" dy="10" in="SourceAlpha" result="shadowOffsetOuter1"></feOffset>
	<feGaussianBlur  in="shadowOffsetOuter1" result="shadowBlurOuter1" stdDeviation="20"></feGaussianBlur>
	<feComposite  in="shadowBlurOuter1" in2="SourceAlpha" operator="out" result="shadowBlurOuter1"></feComposite>
	<feColorMatrix  in="shadowBlurOuter1" type="matrix" values="0 0 0 0 0   0 0 0 0 0   0 0 0 0 0  0 0 0 0.05 0"></feColorMatrix>
</filter>
<g>
	<path id="path-5_1_" class="st0" d="M0-2h242c1.1,0,2,0.9,2,2v262c0,1.1-0.9,2-2,2H0c-1.1,0-2-0.9-2-2V0C-2-1.1-1.1-2,0-2z"/>
</g>
<title>Group 13</title>
<desc>Created with Sketch.</desc>
<g id="Page-1">
	<g id="sepsis" transform="translate(-719.000000, -2202.000000)">
		<g id="Group-13" transform="translate(759.000000, 2232.000000)">
			<g id="sepsis-cells">
				<defs>
					<filter id="Adobe_OpacityMaskFilter" filterUnits="userSpaceOnUse" x="-165" y="-165" width="492" height="532">
						<feColorMatrix  type="matrix" values="1 0 0 0 0  0 1 0 0 0  0 0 1 0 0  0 0 0 1 0"/>
					</filter>
				</defs>
				<mask maskUnits="userSpaceOnUse" x="-165" y="-165" width="492" height="532" id="mask-4">
					<g class="st1">
						<path id="path-1" class="st0" d="M-80-62h242c1.1,0,2,0.9,2,2v262c0,1.1-0.9,2-2,2H-80c-1.1,0-2-0.9-2-2V-60
							C-82-61.1-81.1-62-80-62z"/>
					</g>
				</mask>
				<g id="Mask" class="st2">
					<g class="st3">
						<path id="path-1_4_" d="M-40-32h242c1.1,0,2,0.9,2,2v262c0,1.1-0.9,2-2,2H-40c-1.1,0-2-0.9-2-2V-30C-42-31.1-41.1-32-40-32z"
							/>
					</g>
					<g>
						<path id="path-1_3_" class="st4" d="M-40-32h242c1.1,0,2,0.9,2,2v262c0,1.1-0.9,2-2,2H-40c-1.1,0-2-0.9-2-2V-30
							C-42-31.1-41.1-32-40-32z"/>
					</g>
				</g>
				<defs>
					<filter id="Adobe_OpacityMaskFilter_1_" filterUnits="userSpaceOnUse" x="-49" y="-42" width="275" height="296">
						<feColorMatrix  type="matrix" values="1 0 0 0 0  0 1 0 0 0  0 0 1 0 0  0 0 0 1 0"/>
					</filter>
				</defs>
				<mask maskUnits="userSpaceOnUse" x="-49" y="-42" width="275" height="296" id="mask-2">
					<g class="st5">
						<path id="path-1_1_" class="st0" d="M-40-32h242c1.1,0,2,0.9,2,2v262c0,1.1-0.9,2-2,2H-40c-1.1,0-2-0.9-2-2V-30
							C-42-31.1-41.1-32-40-32z"/>
					</g>
				</mask>
				<g class="st6">
					<g transform="translate(-6.000000, -9.000000)">
						<circle id="Oval-6-Copy-7" class="st7" cx="122.5" cy="127.5" r="32.5"/>
						<circle id="Oval-6-Copy-8" class="st7" cx="198.5" cy="111.5" r="32.5"/>
						<circle id="Oval-6" class="st7" cx="75.5" cy="78.5" r="32.5"/>
						<circle id="Oval-6-Copy-13" class="st7" cx="23.5" cy="73.5" r="32.5"/>
						<circle id="Oval-6-Copy-12" class="st7" cx="68.5" cy="129.5" r="32.5"/>
						<circle id="Oval-6-Copy-2" class="st7" cx="10.5" cy="219.5" r="32.5"/>
						<circle id="Oval-6-Copy-3" class="st7" cx="169.5" cy="64.5" r="32.5"/>
						<circle id="Oval-6-Copy-15" class="st7" cx="133.5" cy="0.5" r="32.5"/>
						<circle id="Oval-6-Copy-4" class="st7" cx="57.5" cy="7.5" r="32.5"/>
						<circle id="Oval-6-Copy-16" class="st7" cx="8.5" cy="19.5" r="32.5"/>
						<circle id="Oval-6-Copy-14" class="st7" cx="184.5" cy="0.5" r="32.5"/>
						<circle id="Oval-6-Copy-5" class="st7" cx="134.5" cy="175.5" r="32.5"/>
						<circle id="Oval-6-Copy-10" class="st7" cx="38.5" cy="175.5" r="32.5"/>
						<path id="star" class="st8" d="M101-7c2.7,29.9,5.2,20.7,12.4,2c-5.2,19.4-8.6,28.2,11.2,5.7c-15.4,25.8-8,19.8,8.8,8.8
							c-15.6,12.6-23.6,17.8,5.7,11.2C111.5,32.5,120.9,32,141,33c-20,1-29.5,0.5-2,12.4c-29.2-6.6-21.3-1.5-5.7,11.2
							c-16.8-10.9-24.2-16.9-8.8,8.8c-19.7-22.6-16.3-13.7-11.2,5.7c-7.2-18.7-9.6-27.9-12.4,2c-2.7-29.9-5.2-20.7-12.4-2
							c5.2-19.4,8.6-28.2-11.2-5.7c15.4-25.8,8-19.8-8.8-8.8c15.6-12.6,23.6-17.8-5.7-11.2C90.5,33.5,81,34,61,33
							c20-1,29.5-0.5,2-12.4c29.2,6.6,21.3,1.5,5.7-11.2c16.8,10.9,24.2,16.9,8.8-8.8C97.2,23.2,93.8,14.3,88.6-5
							C95.8,13.7,98.3,22.9,101-7"/>
						<circle id="Oval-6-Copy-11" class="st7" cx="-9.5" cy="143.5" r="32.5"/>
						<circle id="Oval-6-Copy-6" class="st7" cx="173.5" cy="164.5" r="32.5"/>
						<circle id="Oval-6-Copy-9" class="st7" cx="101.5" cy="229.5" r="32.5"/>
						<g id="Group-5" transform="translate(51.000000, 93.000000)">
							<path id="_x21_" class="st8" d="M-27.6-7.2c-0.9,0-1.6-0.3-2.3-0.9c-0.6-0.6-1-1.4-1-2.3s0.3-1.6,1-2.3
								c0.6-0.6,1.4-0.9,2.3-0.9c0.9,0,1.7,0.3,2.3,0.9c0.6,0.6,1,1.4,1,2.3s-0.3,1.6-1,2.3C-26-7.5-26.7-7.2-27.6-7.2z M-25.3-17.4
								c-0.1,1.1-0.7,1.7-1.6,1.7h-1.3c-1,0-1.5-0.6-1.6-1.7l-1.1-10.9C-31-29-31-29.5-31-29.7c0-1.5,1.1-2.3,3.4-2.3
								s3.4,0.8,3.4,2.3c0,0.4,0,0.9-0.1,1.4L-25.3-17.4z"/>
							<path id="_x21_-copy" class="st8" d="M-16.6-7.2c-0.9,0-1.6-0.3-2.3-0.9c-0.6-0.6-1-1.4-1-2.3s0.3-1.6,1-2.3
								c0.6-0.6,1.4-0.9,2.3-0.9c0.9,0,1.7,0.3,2.3,0.9c0.6,0.6,1,1.4,1,2.3s-0.3,1.6-1,2.3C-15-7.5-15.7-7.2-16.6-7.2z M-14.3-17.4
								c-0.1,1.1-0.7,1.7-1.6,1.7h-1.3c-1,0-1.5-0.6-1.6-1.7l-1.1-10.9C-20-29-20-29.5-20-29.7c0-1.5,1.1-2.3,3.4-2.3
								s3.4,0.8,3.4,2.3c0,0.4,0,0.9-0.1,1.4L-14.3-17.4z"/>
							<path id="_x21_-copy-2" class="st8" d="M-38.6-7.2c-0.9,0-1.6-0.3-2.3-0.9c-0.6-0.6-1-1.4-1-2.3s0.3-1.6,1-2.3
								c0.6-0.6,1.4-0.9,2.3-0.9c0.9,0,1.7,0.3,2.3,0.9c0.6,0.6,1,1.4,1,2.3s-0.3,1.6-1,2.3C-37-7.5-37.7-7.2-38.6-7.2z M-36.3-17.4
								c-0.1,1.1-0.7,1.7-1.6,1.7h-1.3c-1,0-1.5-0.6-1.6-1.7l-1.1-10.9C-42-29-42-29.5-42-29.7c0-1.5,1.1-2.3,3.4-2.3
								s3.4,0.8,3.4,2.3c0,0.4,0,0.9-0.1,1.4L-36.3-17.4z"/>
						</g>
						<g id="Group-5_1_" transform="translate(65.000000, 194.000000)">
							<path id="_x21__1_" class="st8" d="M-27.6-7.2c-0.9,0-1.6-0.3-2.3-0.9c-0.6-0.6-1-1.4-1-2.3s0.3-1.6,1-2.3
								c0.6-0.6,1.4-0.9,2.3-0.9c0.9,0,1.7,0.3,2.3,0.9c0.6,0.6,1,1.4,1,2.3s-0.3,1.6-1,2.3C-26-7.5-26.7-7.2-27.6-7.2z M-25.3-17.4
								c-0.1,1.1-0.7,1.7-1.6,1.7h-1.3c-1,0-1.5-0.6-1.6-1.7l-1.1-10.9C-31-29-31-29.5-31-29.7c0-1.5,1.1-2.3,3.4-2.3
								s3.4,0.8,3.4,2.3c0,0.4,0,0.9-0.1,1.4L-25.3-17.4z"/>
							<path id="_x21_-copy_1_" class="st8" d="M-16.6-7.2c-0.9,0-1.6-0.3-2.3-0.9c-0.6-0.6-1-1.4-1-2.3s0.3-1.6,1-2.3
								c0.6-0.6,1.4-0.9,2.3-0.9c0.9,0,1.7,0.3,2.3,0.9c0.6,0.6,1,1.4,1,2.3s-0.3,1.6-1,2.3C-15-7.5-15.7-7.2-16.6-7.2z M-14.3-17.4
								c-0.1,1.1-0.7,1.7-1.6,1.7h-1.3c-1,0-1.5-0.6-1.6-1.7l-1.1-10.9C-20-29-20-29.5-20-29.7c0-1.5,1.1-2.3,3.4-2.3
								s3.4,0.8,3.4,2.3c0,0.4,0,0.9-0.1,1.4L-14.3-17.4z"/>
							<path id="_x21_-copy-2_1_" class="st8" d="M-38.6-7.2c-0.9,0-1.6-0.3-2.3-0.9c-0.6-0.6-1-1.4-1-2.3s0.3-1.6,1-2.3
								c0.6-0.6,1.4-0.9,2.3-0.9c0.9,0,1.7,0.3,2.3,0.9c0.6,0.6,1,1.4,1,2.3s-0.3,1.6-1,2.3C-37-7.5-37.7-7.2-38.6-7.2z M-36.3-17.4
								c-0.1,1.1-0.7,1.7-1.6,1.7h-1.3c-1,0-1.5-0.6-1.6-1.7l-1.1-10.9C-42-29-42-29.5-42-29.7c0-1.5,1.1-2.3,3.4-2.3
								s3.4,0.8,3.4,2.3c0,0.4,0,0.9-0.1,1.4L-36.3-17.4z"/>
						</g>
						<g id="Group-5-Copy-2" transform="translate(201.000000, 184.000000)">
							<path id="_x21__2_" class="st8" d="M-27.6-7.2c-0.9,0-1.6-0.3-2.3-0.9c-0.6-0.6-1-1.4-1-2.3s0.3-1.6,1-2.3
								c0.6-0.6,1.4-0.9,2.3-0.9c0.9,0,1.7,0.3,2.3,0.9c0.6,0.6,1,1.4,1,2.3s-0.3,1.6-1,2.3C-26-7.5-26.7-7.2-27.6-7.2z M-25.3-17.4
								c-0.1,1.1-0.7,1.7-1.6,1.7h-1.3c-1,0-1.5-0.6-1.6-1.7l-1.1-10.9C-31-29-31-29.5-31-29.7c0-1.5,1.1-2.3,3.4-2.3
								s3.4,0.8,3.4,2.3c0,0.4,0,0.9-0.1,1.4L-25.3-17.4z"/>
							<path id="_x21_-copy_2_" class="st8" d="M-16.6-7.2c-0.9,0-1.6-0.3-2.3-0.9c-0.6-0.6-1-1.4-1-2.3s0.3-1.6,1-2.3
								c0.6-0.6,1.4-0.9,2.3-0.9c0.9,0,1.7,0.3,2.3,0.9c0.6,0.6,1,1.4,1,2.3s-0.3,1.6-1,2.3C-15-7.5-15.7-7.2-16.6-7.2z M-14.3-17.4
								c-0.1,1.1-0.7,1.7-1.6,1.7h-1.3c-1,0-1.5-0.6-1.6-1.7l-1.1-10.9C-20-29-20-29.5-20-29.7c0-1.5,1.1-2.3,3.4-2.3
								s3.4,0.8,3.4,2.3c0,0.4,0,0.9-0.1,1.4L-14.3-17.4z"/>
							<path id="_x21_-copy-2_2_" class="st8" d="M-38.6-7.2c-0.9,0-1.6-0.3-2.3-0.9c-0.6-0.6-1-1.4-1-2.3s0.3-1.6,1-2.3
								c0.6-0.6,1.4-0.9,2.3-0.9c0.9,0,1.7,0.3,2.3,0.9c0.6,0.6,1,1.4,1,2.3s-0.3,1.6-1,2.3C-37-7.5-37.7-7.2-38.6-7.2z M-36.3-17.4
								c-0.1,1.1-0.7,1.7-1.6,1.7h-1.3c-1,0-1.5-0.6-1.6-1.7l-1.1-10.9C-42-29-42-29.5-42-29.7c0-1.5,1.1-2.3,3.4-2.3
								s3.4,0.8,3.4,2.3c0,0.4,0,0.9-0.1,1.4L-36.3-17.4z"/>
						</g>
						<g id="Group-5_2_" transform="translate(197.000000, 85.000000)">
							<path id="_x21__3_" class="st8" d="M-27.6-7.2c-0.9,0-1.6-0.3-2.3-0.9c-0.6-0.6-1-1.4-1-2.3s0.3-1.6,1-2.3
								c0.6-0.6,1.4-0.9,2.3-0.9c0.9,0,1.7,0.3,2.3,0.9c0.6,0.6,1,1.4,1,2.3s-0.3,1.6-1,2.3C-26-7.5-26.7-7.2-27.6-7.2z M-25.3-17.4
								c-0.1,1.1-0.7,1.7-1.6,1.7h-1.3c-1,0-1.5-0.6-1.6-1.7l-1.1-10.9C-31-29-31-29.5-31-29.7c0-1.5,1.1-2.3,3.4-2.3
								s3.4,0.8,3.4,2.3c0,0.4,0,0.9-0.1,1.4L-25.3-17.4z"/>
							<path id="_x21_-copy_3_" class="st8" d="M-16.6-7.2c-0.9,0-1.6-0.3-2.3-0.9c-0.6-0.6-1-1.4-1-2.3s0.3-1.6,1-2.3
								c0.6-0.6,1.4-0.9,2.3-0.9c0.9,0,1.7,0.3,2.3,0.9c0.6,0.6,1,1.4,1,2.3s-0.3,1.6-1,2.3C-15-7.5-15.7-7.2-16.6-7.2z M-14.3-17.4
								c-0.1,1.1-0.7,1.7-1.6,1.7h-1.3c-1,0-1.5-0.6-1.6-1.7l-1.1-10.9C-20-29-20-29.5-20-29.7c0-1.5,1.1-2.3,3.4-2.3
								s3.4,0.8,3.4,2.3c0,0.4,0,0.9-0.1,1.4L-14.3-17.4z"/>
							<path id="_x21_-copy-2_3_" class="st8" d="M-38.6-7.2c-0.9,0-1.6-0.3-2.3-0.9c-0.6-0.6-1-1.4-1-2.3s0.3-1.6,1-2.3
								c0.6-0.6,1.4-0.9,2.3-0.9c0.9,0,1.7,0.3,2.3,0.9c0.6,0.6,1,1.4,1,2.3s-0.3,1.6-1,2.3C-37-7.5-37.7-7.2-38.6-7.2z M-36.3-17.4
								c-0.1,1.1-0.7,1.7-1.6,1.7h-1.3c-1,0-1.5-0.6-1.6-1.7l-1.1-10.9C-42-29-42-29.5-42-29.7c0-1.5,1.1-2.3,3.4-2.3
								s3.4,0.8,3.4,2.3c0,0.4,0,0.9-0.1,1.4L-36.3-17.4z"/>
						</g>
					</g>
				</g>
				<defs>
					<filter id="Adobe_OpacityMaskFilter_2_" filterUnits="userSpaceOnUse" x="-165" y="-165" width="492" height="532">
						<feColorMatrix  type="matrix" values="1 0 0 0 0  0 1 0 0 0  0 0 1 0 0  0 0 0 1 0"/>
					</filter>
				</defs>
				<mask maskUnits="userSpaceOnUse" x="-165" y="-165" width="492" height="532" id="mask-8">
					<g class="st9">
						<path id="path-5" class="st0" d="M-80-62h242c1.1,0,2,0.9,2,2v262c0,1.1-0.9,2-2,2H-80c-1.1,0-2-0.9-2-2V-60
							C-82-61.1-81.1-62-80-62z"/>
					</g>
				</mask>
				<g id="Mask_1_" class="st10">
					<g class="st11">
						<path id="path-5_4_" d="M-40-32h242c1.1,0,2,0.9,2,2v262c0,1.1-0.9,2-2,2H-40c-1.1,0-2-0.9-2-2V-30C-42-31.1-41.1-32-40-32z"
							/>
					</g>
					<g>
						<path id="path-5_3_" class="st12" d="M-40-32h242c1.1,0,2,0.9,2,2v262c0,1.1-0.9,2-2,2H-40c-1.1,0-2-0.9-2-2V-30
							C-42-31.1-41.1-32-40-32z"/>
					</g>
				</g>
			</g>
			<text transform="matrix(1 0 0 1 -2.8913 11)" class="st13 st14 st15">Pathogen</text>
			<text transform="matrix(1 0 0 1 46.0287 125)" class="st13 st14 st15">Immune Cells</text>
		</g>
	</g>
</g>
</svg>
