<?xml version="1.0" encoding="utf-8"?>
<!-- Generator: Adobe Illustrator 19.2.1, SVG Export Plug-In . SVG Version: 6.00 Build 0)  -->
<svg version="1.1" id="Layer_1" xmlns="http://www.w3.org/2000/svg" xmlns:xlink="http://www.w3.org/1999/xlink" x="0px" y="0px"
	 viewBox="0 0 246 286" style="enable-background:new 0 0 246 286;" xml:space="preserve">
<style type="text/css">
	.st0{filter:url(#filter-2);}
	.st1{fill:#FFFFFF;}
	.st2{fill:#3ECDC3;}
	.st3{fill:#201743;}
	.st4{fill:#403E50;}
	.st5{font-family:'FuturaStd-Medium';}
	.st6{font-size:16px;}
	.st7{fill:#D8D8D8;}
	.st8{fill:none;stroke:#6677CC;stroke-width:2;stroke-linecap:round;stroke-linejoin:round;}
</style>
<filter  filterUnits="objectBoundingBox" height="200%" id="filter-2" width="200%" x="-50%" y="-50%">
	<feOffset  dx="0" dy="10" in="SourceAlpha" result="shadowOffsetOuter1"></feOffset>
	<feGaussianBlur  in="shadowOffsetOuter1" result="shadowBlurOuter1" stdDeviation="20"></feGaussianBlur>
	<feColorMatrix  in="shadowBlurOuter1" type="matrix" values="0 0 0 0 0   0 0 0 0 0   0 0 0 0 0  0 0 0 0.05 0"></feColorMatrix>
</filter>
<title>Group 14</title>
<desc>Created with Sketch.</desc>
<g id="Page-1">
	<g id="sepsis" transform="translate(-394.000000, -2202.000000)">
		<g id="Group-14" transform="translate(434.000000, 2232.000000)">
			<g id="Rectangle">
				<g class="st0">
					<path id="path-1_2_" d="M-38-30h242c1.1,0,2,0.9,2,2v262c0,1.1-0.9,2-2,2H-38c-1.1,0-2-0.9-2-2V-28C-40-29.1-39.1-30-38-30z"/>
				</g>
				<g>
					<path id="path-1_1_" class="st1" d="M-38-30h242c1.1,0,2,0.9,2,2v262c0,1.1-0.9,2-2,2H-38c-1.1,0-2-0.9-2-2V-28
						C-40-29.1-39.1-30-38-30z"/>
				</g>
			</g>
			<g id="Group-12" transform="translate(21.000000, 17.000000)">
				<circle id="Oval-2" class="st2" cx="3.5" cy="13.5" r="43.5"/>
				<path id="star" class="st3" d="M4-21C6.4,5.1,8.5-2.9,14.8-19.3c-4.5,16.9-7.5,24.7,9.8,5C11.1,8.2,17.6,3,32.3-6.6
					c-13.6,11-20.6,15.6,5,9.8C13.2,13.5,21.5,13.1,39,14c-17.5,0.9-25.8,0.5-1.7,10.8c-25.6-5.8-18.6-1.3-5,9.8
					c-14.7-9.6-21.2-14.8-7.7,7.7c-17.3-19.7-14.3-12-9.8,5C8.5,30.9,6.4,22.9,4,49C1.6,22.9-0.5,30.9-6.8,47.3
					c4.5-16.9,7.5-24.7-9.8-5c13.4-22.5,7-17.3-7.7-7.7c13.6-11,20.6-15.6-5-9.8C-5.2,14.5-13.5,14.9-31,14
					c17.5-0.9,25.8-0.5,1.7-10.8c25.6,5.8,18.6,1.3,5-9.8C-9.6,3-3.1,8.2-16.6-14.3c17.3,19.7,14.3,12,9.8-5C-0.5-2.9,1.6,5.1,4-21"
					/>
				<text transform="matrix(1 0 0 1 65.14 -4)" class="st4 st5 st6">Pathogen</text>
				<text transform="matrix(1 0 0 1 75.06 186)" class="st4 st5 st6">Immune Cells</text>
				<g id="Group-6" transform="translate(57.000000, 166.000000)">
					<ellipse id="Oval-6-Copy" class="st7" cx="-15.8" cy="-6.2" rx="24.2" ry="23.8"/>
					<path id="_x21_" class="st3" d="M-16.2,6.5c-0.9,0-1.6-0.3-2.3-0.9c-0.6-0.6-1-1.4-1-2.3c0-0.9,0.3-1.6,1-2.3
						c0.6-0.6,1.4-0.9,2.3-0.9c0.9,0,1.7,0.3,2.3,0.9c0.6,0.6,1,1.4,1,2.3c0,0.9-0.3,1.6-1,2.3C-14.5,6.2-15.3,6.5-16.2,6.5z
						 M-13.8-3.8c-0.1,1.1-0.7,1.7-1.6,1.7h-1.3c-1,0-1.5-0.6-1.6-1.7l-1.1-10.9c-0.1-0.7-0.1-1.2-0.1-1.4c0-1.5,1.1-2.3,3.4-2.3
						s3.4,0.8,3.4,2.3c0,0.4,0,0.9-0.1,1.4L-13.8-3.8z"/>
				</g>
				<g id="Group-6-Copy" transform="translate(113.000000, 140.000000)">
					<ellipse id="Oval-6-Copy_1_" class="st7" cx="-15.8" cy="-6.2" rx="24.2" ry="23.8"/>
					<path id="_x21__1_" class="st3" d="M-16.2,6.5c-0.9,0-1.6-0.3-2.3-0.9c-0.6-0.6-1-1.4-1-2.3c0-0.9,0.3-1.6,1-2.3
						c0.6-0.6,1.4-0.9,2.3-0.9c0.9,0,1.7,0.3,2.3,0.9c0.6,0.6,1,1.4,1,2.3c0,0.9-0.3,1.6-1,2.3C-14.5,6.2-15.3,6.5-16.2,6.5z
						 M-13.8-3.8c-0.1,1.1-0.7,1.7-1.6,1.7h-1.3c-1,0-1.5-0.6-1.6-1.7l-1.1-10.9c-0.1-0.7-0.1-1.2-0.1-1.4c0-1.5,1.1-2.3,3.4-2.3
						s3.4,0.8,3.4,2.3c0,0.4,0,0.9-0.1,1.4L-13.8-3.8z"/>
				</g>
				<g id="Group-6-Copy-2" transform="translate(145.000000, 90.000000)">
					<ellipse id="Oval-6-Copy_2_" class="st7" cx="-15.8" cy="-6.2" rx="24.2" ry="23.8"/>
					<path id="_x21__2_" class="st3" d="M-16.2,6.5c-0.9,0-1.6-0.3-2.3-0.9c-0.6-0.6-1-1.4-1-2.3c0-0.9,0.3-1.6,1-2.3
						c0.6-0.6,1.4-0.9,2.3-0.9c0.9,0,1.7,0.3,2.3,0.9c0.6,0.6,1,1.4,1,2.3c0,0.9-0.3,1.6-1,2.3C-14.5,6.2-15.3,6.5-16.2,6.5z
						 M-13.8-3.8c-0.1,1.1-0.7,1.7-1.6,1.7h-1.3c-1,0-1.5-0.6-1.6-1.7l-1.1-10.9c-0.1-0.7-0.1-1.2-0.1-1.4c0-1.5,1.1-2.3,3.4-2.3
						s3.4,0.8,3.4,2.3c0,0.4,0,0.9-0.1,1.4L-13.8-3.8z"/>
				</g>
				
					<g id="Group-2" transform="translate(66.482086, 136.260260) rotate(-105.000000) translate(-66.482086, -136.260260) translate(45.982086, 126.760260)">
					<path id="Path-16-Copy-2" class="st8" d="M39.3-21.9l39,0"/>
					<polyline id="Path-17-Copy-2" class="st8" points="69.3,-30.9 80.3,-22 69.3,-11.9 					"/>
				</g>
				
					<g id="Group-2-Copy" transform="translate(98.213203, 119.213203) rotate(-135.000000) translate(-98.213203, -119.213203) translate(77.713203, 109.713203)">
					<path id="Path-16-Copy-2_1_" class="st8" d="M49.5,1.9h39"/>
					<polyline id="Path-17-Copy-2_1_" class="st8" points="79.5,-7.1 90.5,1.8 79.5,11.9 					"/>
				</g>
				
					<g id="Group-2-Copy-2" transform="translate(122.503521, 90.477241) rotate(-150.000000) translate(-122.503521, -90.477241) translate(102.003521, 80.977241)">
					<path id="Path-16-Copy-2_2_" class="st8" d="M49.6,15l39,0"/>
					<polyline id="Path-17-Copy-2_2_" class="st8" points="79.6,6 90.6,14.8 79.6,25 					"/>
				</g>
			</g>
		</g>
	</g>
</g>
</svg>
